<?xml version="1.0" encoding="UTF-8" standalone="no"?>
<!DOCTYPE svg PUBLIC "-//W3C//DTD SVG 1.1//EN" "http://www.w3.org/Graphics/SVG/1.1/DTD/svg11.dtd">
<svg width="100%" height="100%" viewBox="0 0 1220 355" version="1.1" xmlns="http://www.w3.org/2000/svg" xmlns:xlink="http://www.w3.org/1999/xlink" xml:space="preserve" xmlns:serif="http://www.serif.com/" style="fill-rule:evenodd;clip-rule:evenodd;stroke-linejoin:round;stroke-miterlimit:2;">
    <g transform="matrix(1,0,0,1,-350,-362.793)">
        <g transform="matrix(1.70391,0,0,1.70391,-413.352,-427.821)">
            <path d="M576,496L630.4,468.8L636,480L632,488C632,480 624,480 624,480C624,480 604,480 604,512L604,528L636,512C640,520 660,528 660,528L660,576C660,624 612,672 612,672C612,672 632,640 636,608C644,544 636,532 636,532L620,524L580,544.001L580,504L576,496ZM964,539.999L964,504L960,496L1014.4,468.8L1020,480L1016,488C1016,480 1008,480 1008,480C1008,480 988,480 988,512L988,528L1020,512C1024,520 1044,528 1044,528L1044,576C1044,624 996,672 996,672C996,672 1016,640 1020,608C1028,544 1020,532 1020,532L1004,524L887.323,582.339C891.501,595.3 899.201,604 908,604C920.503,604 930.786,586.434 931.9,564.046L955.385,552.304C955.79,554.809 956,557.38 956,560C956,586.492 934.492,608 908,608C893.096,608 879.769,601.192 870.96,590.517L859.996,595.998L860,596L836,608C836,608 828,604 828,596L828,532L812,524L695.323,582.339C699.501,595.3 707.201,604 716.001,604C728.502,604 738.784,586.438 739.9,564.05L763.385,552.307C763.79,554.814 764,557.383 764,560C764,586.492 742.492,608 716,608C689.508,608 668,586.492 668,560C668,533.508 689.508,512 716,512C737.318,512 755.409,525.927 761.661,545.169L772,540L772,528C772,496 752,496 752,496L755.2,489.6L800,512L796,520L796,528L828,512C832,520 852,528 852,528L852,584C852,588.461 854.487,591.678 856.688,593.651L868.749,587.621C863.238,579.807 860,570.279 860,560C860,533.508 881.508,512 908,512C929.316,512 947.405,525.924 953.66,545.168L964,539.999ZM604,536L580,548L580,588L576,596L576,600C576,600 600,608.001 604,616L604,612L600,608L604,600L604,536ZM988,535.996L988,600L984,608L988,612L988,616C984,608.001 960,600 960,600L960,596L964,588L964,547.996L988,535.996ZM796,536L772,548L772,588L768,596L768,600C768,600 792,608 796,616L796,612L792,608L796,600L796,536ZM1125.09,600.919C1117.79,605.409 1109.19,608 1100,608C1073.51,608 1052,586.492 1052,560C1052,533.508 1073.51,512 1100,512C1114.2,512 1126.98,518.184 1135.77,528.004L1148,528.004C1148,547.025 1148,516.109 1148,584C1148,588.462 1150.49,591.68 1152.69,593.653L1164,588L1164,591.996L1132,608C1132,608 1127.28,605.639 1125.09,600.919ZM472,536C472,536 448,536 448,512C448,496 464,480 464,480L480,464C480,480 504,480 504,480L576,480L519.235,557.407C549.076,561.683 576,560 576,560C576,560 556,568 552,576C540.684,570.342 527.447,566.605 514.286,564.155L488,600C551.998,616.002 576,576 576,576L560,608L448,608L481.858,560.291C462.422,559.099 448,560 448,560C448,560 468,552 472,544C477.22,546.61 482.849,548.811 488.689,550.665L536,484C472,472 464,517 464,520C464,539.999 488,535.996 488,520L496,532L488,536L472,536ZM1124,560C1124,584.284 1113.25,604 1100,604C1086.75,604 1076,584.284 1076,560C1076,535.716 1086.75,516 1100,516C1113.25,516 1124,535.716 1124,560ZM738.517,544.745L692.378,567.815C692.13,565.278 692,562.666 692,560C692,535.716 702.754,516 716.001,516C726.322,516 735.13,527.97 738.517,544.745ZM930.515,544.742L884.378,567.811C884.13,565.278 884,562.666 884,560C884,535.716 894.754,516 908,516C918.321,516 927.13,527.97 930.515,544.742Z" style="fill:rgb(230,230,230);"/>
        </g>
    </g>
</svg>
